<?xml version="1.0" encoding="utf-8"?>
<!-- Svg Vector Icons : http://www.onlinewebfonts.com/icon -->
<!DOCTYPE svg PUBLIC "-//W3C//DTD SVG 1.1//EN" "http://www.w3.org/Graphics/SVG/1.1/DTD/svg11.dtd">
<svg version="1.1" xmlns="http://www.w3.org/2000/svg" xmlns:xlink="http://www.w3.org/1999/xlink" x="0px" y="0px" viewBox="0 0 256 256" enable-background="new 0 0 256 256" xml:space="preserve">
<metadata> Svg Vector Icons : http://www.onlinewebfonts.com/icon </metadata>
<g><g><g><path fill="#000000" d="M108,13c-15.9,4.9-31.9,17.5-40.9,32.5c-4.9,7.7-9.4,25-9.4,35.2s4.5,27.5,9.4,35.2c9.6,15.7,27,28.5,45.3,33.5l8.3,2.4v47V246h7.9h7.9v-47.2v-47l8.3-2.4c21.6-5.7,38.8-20.1,48.2-40.1c4.7-10,5.5-14.4,5.5-28.5s-0.8-18.5-5.5-28.5C177.5,19.1,141.7,2.8,108,13z M128.5,49c0,6.7-0.6,7.9-5.3,9.1c-7.5,1.8-15.9,10-17.3,16.9c-1.2,5.1-2.2,5.7-9.2,5.7h-7.9l1.4-7.5c2.6-13.8,13.2-26,26.2-29.9C127.1,40,128.5,40.8,128.5,49z"/></g></g></g>
</svg>